# xmcd
#
# Track frame offsets:
# 150
# 17902
# 36727
# 54402
# 69002
# 85617
# 107155
# 126980
# 147712
# 166900
# 184455
# 199017
# 219900
# 238230
#
# Disc length: 3453 seconds
#
#
# Revision: 0
# Processed by: cddbd v1.5.1PL2 Copyright (c) Steve Scherf et al.
# Submitted via: FreeRIP 2.90 
#
DISCID=cf0d7b0e
DTITLE=LEONARDO - LEONARDO TODO *SEU
DYEAR=2005
DGENRE=Country
TTITLE0=UM SONHADOR
TTITLE1=DEU MEDO
TTITLE2=DIA DE RODEO
TTITLE3=CUMADE E CUMPADE
TTITLE4=SO O TEMPO VAI DIZER
TTITLE5=120....150 KM POR HORA
TTITLE6=MENTIRA QUE VIROU PAIXAO
TTITLE7=MEU GRITO DE AMOR
TTITLE8=MANO
TTITLE9=VOU DAR UM TEMPO
TTITLE10=BOTO PRA REMEXER
TTITLE11=SERA(L AURORA)
TTITLE12=AMOR DE NOVELA
TTITLE13=ABANDONADO(ABANDONADA)
EXTD=
EXTT0=
EXTT1=
EXTT2=
EXTT3=
EXTT4=
EXTT5=
EXTT6=
EXTT7=
EXTT8=
EXTT9=
EXTT10=
EXTT11=
EXTT12=
EXTT13=
PLAYORDER=
